<mxfile host="app.diagrams.net" modified="2023-05-01T20:32:10.882Z" agent="Mozilla/5.0 (Windows NT 10.0; Win64; x64) AppleWebKit/537.36 (KHTML, like Gecko) Chrome/112.0.0.0 Safari/537.36" etag="j-NByWEnOY2itsh9C7Bk" version="21.1.4" type="device">
  <diagram id="R2lEEEUBdFMjLlhIrx00" name="Page-1">
    <mxGraphModel dx="652" dy="366" grid="1" gridSize="10" guides="1" tooltips="1" connect="1" arrows="1" fold="1" page="1" pageScale="1" pageWidth="850" pageHeight="1100" math="0" shadow="0" extFonts="Permanent Marker^https://fonts.googleapis.com/css?family=Permanent+Marker">
      <root>
        <mxCell id="0" />
        <mxCell id="1" parent="0" />
        <mxCell id="P37ZVxwRbgG7Ck2Tnz4E-1" value="Suggestion" style="swimlane;fontStyle=1;align=center;verticalAlign=top;childLayout=stackLayout;horizontal=1;startSize=26;horizontalStack=0;resizeParent=1;resizeParentMax=0;resizeLast=0;collapsible=1;marginBottom=0;whiteSpace=wrap;html=1;" parent="1" vertex="1">
          <mxGeometry x="345" y="388" width="160" height="140" as="geometry" />
        </mxCell>
        <mxCell id="P37ZVxwRbgG7Ck2Tnz4E-2" value="- hotel_id : int&lt;br&gt;- hotel_name : varchar&lt;br&gt;- username : varchar&lt;br&gt;- hotel_loc : varchar&lt;span style=&quot;white-space: pre;&quot;&gt;	&lt;/span&gt;" style="text;strokeColor=none;fillColor=none;align=left;verticalAlign=top;spacingLeft=4;spacingRight=4;overflow=hidden;rotatable=0;points=[[0,0.5],[1,0.5]];portConstraint=eastwest;whiteSpace=wrap;html=1;" parent="P37ZVxwRbgG7Ck2Tnz4E-1" vertex="1">
          <mxGeometry y="26" width="160" height="74" as="geometry" />
        </mxCell>
        <mxCell id="P37ZVxwRbgG7Ck2Tnz4E-3" value="" style="line;strokeWidth=1;fillColor=none;align=left;verticalAlign=middle;spacingTop=-1;spacingLeft=3;spacingRight=3;rotatable=0;labelPosition=right;points=[];portConstraint=eastwest;strokeColor=inherit;" parent="P37ZVxwRbgG7Ck2Tnz4E-1" vertex="1">
          <mxGeometry y="100" width="160" height="8" as="geometry" />
        </mxCell>
        <mxCell id="P37ZVxwRbgG7Ck2Tnz4E-4" value="+ submit_suggestion()" style="text;strokeColor=none;fillColor=none;align=left;verticalAlign=top;spacingLeft=4;spacingRight=4;overflow=hidden;rotatable=0;points=[[0,0.5],[1,0.5]];portConstraint=eastwest;whiteSpace=wrap;html=1;" parent="P37ZVxwRbgG7Ck2Tnz4E-1" vertex="1">
          <mxGeometry y="108" width="160" height="32" as="geometry" />
        </mxCell>
        <mxCell id="un5IpDse4PVxTzxpuwJB-1" value="User" style="swimlane;fontStyle=1;align=center;verticalAlign=top;childLayout=stackLayout;horizontal=1;startSize=26;horizontalStack=0;resizeParent=1;resizeParentMax=0;resizeLast=0;collapsible=1;marginBottom=0;whiteSpace=wrap;html=1;" parent="1" vertex="1">
          <mxGeometry x="50" y="220" width="160" height="208" as="geometry" />
        </mxCell>
        <mxCell id="un5IpDse4PVxTzxpuwJB-2" value="- uid : int&lt;br&gt;- username : varchar&lt;br&gt;- email : varchar&lt;br&gt;- password : varchar&lt;br&gt;- user_type : int&lt;br&gt;- image : varchar" style="text;strokeColor=none;fillColor=none;align=left;verticalAlign=top;spacingLeft=4;spacingRight=4;overflow=hidden;rotatable=0;points=[[0,0.5],[1,0.5]];portConstraint=eastwest;whiteSpace=wrap;html=1;" parent="un5IpDse4PVxTzxpuwJB-1" vertex="1">
          <mxGeometry y="26" width="160" height="94" as="geometry" />
        </mxCell>
        <mxCell id="un5IpDse4PVxTzxpuwJB-3" value="" style="line;strokeWidth=1;fillColor=none;align=left;verticalAlign=middle;spacingTop=-1;spacingLeft=3;spacingRight=3;rotatable=0;labelPosition=right;points=[];portConstraint=eastwest;strokeColor=inherit;" parent="un5IpDse4PVxTzxpuwJB-1" vertex="1">
          <mxGeometry y="120" width="160" height="8" as="geometry" />
        </mxCell>
        <mxCell id="un5IpDse4PVxTzxpuwJB-4" value="+ login()&lt;br&gt;+ logout()&lt;br&gt;+ create_acc()&lt;br&gt;+ delete_acc()&lt;br&gt;+ edit_acc()" style="text;strokeColor=none;fillColor=none;align=left;verticalAlign=top;spacingLeft=4;spacingRight=4;overflow=hidden;rotatable=0;points=[[0,0.5],[1,0.5]];portConstraint=eastwest;whiteSpace=wrap;html=1;" parent="un5IpDse4PVxTzxpuwJB-1" vertex="1">
          <mxGeometry y="128" width="160" height="80" as="geometry" />
        </mxCell>
        <mxCell id="un5IpDse4PVxTzxpuwJB-5" value="Favourite" style="swimlane;fontStyle=1;align=center;verticalAlign=top;childLayout=stackLayout;horizontal=1;startSize=26;horizontalStack=0;resizeParent=1;resizeParentMax=0;resizeLast=0;collapsible=1;marginBottom=0;whiteSpace=wrap;html=1;" parent="1" vertex="1">
          <mxGeometry x="345" y="228" width="160" height="120" as="geometry" />
        </mxCell>
        <mxCell id="un5IpDse4PVxTzxpuwJB-6" value="- fav_id : int&lt;br&gt;- uid : int&lt;br&gt;- item_id : int" style="text;strokeColor=none;fillColor=none;align=left;verticalAlign=top;spacingLeft=4;spacingRight=4;overflow=hidden;rotatable=0;points=[[0,0.5],[1,0.5]];portConstraint=eastwest;whiteSpace=wrap;html=1;" parent="un5IpDse4PVxTzxpuwJB-5" vertex="1">
          <mxGeometry y="26" width="160" height="54" as="geometry" />
        </mxCell>
        <mxCell id="un5IpDse4PVxTzxpuwJB-7" value="" style="line;strokeWidth=1;fillColor=none;align=left;verticalAlign=middle;spacingTop=-1;spacingLeft=3;spacingRight=3;rotatable=0;labelPosition=right;points=[];portConstraint=eastwest;strokeColor=inherit;" parent="un5IpDse4PVxTzxpuwJB-5" vertex="1">
          <mxGeometry y="80" width="160" height="8" as="geometry" />
        </mxCell>
        <mxCell id="un5IpDse4PVxTzxpuwJB-8" value="- mange_favourite()" style="text;strokeColor=none;fillColor=none;align=left;verticalAlign=top;spacingLeft=4;spacingRight=4;overflow=hidden;rotatable=0;points=[[0,0.5],[1,0.5]];portConstraint=eastwest;whiteSpace=wrap;html=1;" parent="un5IpDse4PVxTzxpuwJB-5" vertex="1">
          <mxGeometry y="88" width="160" height="32" as="geometry" />
        </mxCell>
        <mxCell id="un5IpDse4PVxTzxpuwJB-9" value="Hotel" style="swimlane;fontStyle=1;align=center;verticalAlign=top;childLayout=stackLayout;horizontal=1;startSize=26;horizontalStack=0;resizeParent=1;resizeParentMax=0;resizeLast=0;collapsible=1;marginBottom=0;whiteSpace=wrap;html=1;" parent="1" vertex="1">
          <mxGeometry x="345" y="20" width="160" height="180" as="geometry" />
        </mxCell>
        <mxCell id="un5IpDse4PVxTzxpuwJB-10" value="- hotel_id : int&lt;br&gt;+ hotel_name : varchar&lt;br&gt;+ hotel_loc : varchar&lt;br&gt;+ loc_name : varchar" style="text;strokeColor=none;fillColor=none;align=left;verticalAlign=top;spacingLeft=4;spacingRight=4;overflow=hidden;rotatable=0;points=[[0,0.5],[1,0.5]];portConstraint=eastwest;whiteSpace=wrap;html=1;" parent="un5IpDse4PVxTzxpuwJB-9" vertex="1">
          <mxGeometry y="26" width="160" height="74" as="geometry" />
        </mxCell>
        <mxCell id="un5IpDse4PVxTzxpuwJB-11" value="" style="line;strokeWidth=1;fillColor=none;align=left;verticalAlign=middle;spacingTop=-1;spacingLeft=3;spacingRight=3;rotatable=0;labelPosition=right;points=[];portConstraint=eastwest;strokeColor=inherit;" parent="un5IpDse4PVxTzxpuwJB-9" vertex="1">
          <mxGeometry y="100" width="160" height="8" as="geometry" />
        </mxCell>
        <mxCell id="un5IpDse4PVxTzxpuwJB-12" value="- add_hotel()&lt;br&gt;- remove_hotel()&lt;br&gt;- update_hotel()&lt;br&gt;+ view_hotel()" style="text;strokeColor=none;fillColor=none;align=left;verticalAlign=top;spacingLeft=4;spacingRight=4;overflow=hidden;rotatable=0;points=[[0,0.5],[1,0.5]];portConstraint=eastwest;whiteSpace=wrap;html=1;" parent="un5IpDse4PVxTzxpuwJB-9" vertex="1">
          <mxGeometry y="108" width="160" height="72" as="geometry" />
        </mxCell>
        <mxCell id="un5IpDse4PVxTzxpuwJB-13" value="Item" style="swimlane;fontStyle=1;align=center;verticalAlign=top;childLayout=stackLayout;horizontal=1;startSize=26;horizontalStack=0;resizeParent=1;resizeParentMax=0;resizeLast=0;collapsible=1;marginBottom=0;whiteSpace=wrap;html=1;" parent="1" vertex="1">
          <mxGeometry x="640" y="235" width="160" height="220" as="geometry" />
        </mxCell>
        <mxCell id="un5IpDse4PVxTzxpuwJB-14" value="-&amp;nbsp; item_id : int&lt;br&gt;+ item_name : varchar&lt;br&gt;+ item_price : int&lt;br&gt;+ item_review : varchar&lt;br&gt;+ item_img : varchar" style="text;strokeColor=none;fillColor=none;align=left;verticalAlign=top;spacingLeft=4;spacingRight=4;overflow=hidden;rotatable=0;points=[[0,0.5],[1,0.5]];portConstraint=eastwest;whiteSpace=wrap;html=1;" parent="un5IpDse4PVxTzxpuwJB-13" vertex="1">
          <mxGeometry y="26" width="160" height="84" as="geometry" />
        </mxCell>
        <mxCell id="un5IpDse4PVxTzxpuwJB-15" value="" style="line;strokeWidth=1;fillColor=none;align=left;verticalAlign=middle;spacingTop=-1;spacingLeft=3;spacingRight=3;rotatable=0;labelPosition=right;points=[];portConstraint=eastwest;strokeColor=inherit;" parent="un5IpDse4PVxTzxpuwJB-13" vertex="1">
          <mxGeometry y="110" width="160" height="8" as="geometry" />
        </mxCell>
        <mxCell id="un5IpDse4PVxTzxpuwJB-16" value="- add_item()&lt;br&gt;- remove_item()&lt;br&gt;- update_item()&lt;br&gt;+ view_item()&lt;br&gt;+ add_review()&lt;br&gt;+ add_to_fav()" style="text;strokeColor=none;fillColor=none;align=left;verticalAlign=top;spacingLeft=4;spacingRight=4;overflow=hidden;rotatable=0;points=[[0,0.5],[1,0.5]];portConstraint=eastwest;whiteSpace=wrap;html=1;" parent="un5IpDse4PVxTzxpuwJB-13" vertex="1">
          <mxGeometry y="118" width="160" height="102" as="geometry" />
        </mxCell>
        <mxCell id="un5IpDse4PVxTzxpuwJB-17" value="Review" style="swimlane;fontStyle=1;align=center;verticalAlign=top;childLayout=stackLayout;horizontal=1;startSize=26;horizontalStack=0;resizeParent=1;resizeParentMax=0;resizeLast=0;collapsible=1;marginBottom=0;whiteSpace=wrap;html=1;" parent="1" vertex="1">
          <mxGeometry x="345" y="568" width="160" height="180" as="geometry" />
        </mxCell>
        <mxCell id="un5IpDse4PVxTzxpuwJB-18" value="-&amp;nbsp; rev_id :&amp;nbsp; int&lt;br&gt;+ rev_content : varchar&lt;br&gt;+ rev_date : date&lt;br&gt;+ uid : int&lt;br&gt;+ item_id : varchar" style="text;strokeColor=none;fillColor=none;align=left;verticalAlign=top;spacingLeft=4;spacingRight=4;overflow=hidden;rotatable=0;points=[[0,0.5],[1,0.5]];portConstraint=eastwest;whiteSpace=wrap;html=1;" parent="un5IpDse4PVxTzxpuwJB-17" vertex="1">
          <mxGeometry y="26" width="160" height="84" as="geometry" />
        </mxCell>
        <mxCell id="un5IpDse4PVxTzxpuwJB-19" value="" style="line;strokeWidth=1;fillColor=none;align=left;verticalAlign=middle;spacingTop=-1;spacingLeft=3;spacingRight=3;rotatable=0;labelPosition=right;points=[];portConstraint=eastwest;strokeColor=inherit;" parent="un5IpDse4PVxTzxpuwJB-17" vertex="1">
          <mxGeometry y="110" width="160" height="8" as="geometry" />
        </mxCell>
        <mxCell id="un5IpDse4PVxTzxpuwJB-20" value="+ add_review()&lt;br&gt;+ view_review()&lt;br&gt;+ update_review()" style="text;strokeColor=none;fillColor=none;align=left;verticalAlign=top;spacingLeft=4;spacingRight=4;overflow=hidden;rotatable=0;points=[[0,0.5],[1,0.5]];portConstraint=eastwest;whiteSpace=wrap;html=1;" parent="un5IpDse4PVxTzxpuwJB-17" vertex="1">
          <mxGeometry y="118" width="160" height="62" as="geometry" />
        </mxCell>
        <mxCell id="un5IpDse4PVxTzxpuwJB-32" value="" style="endArrow=diamondThin;endFill=1;endSize=24;html=1;rounded=0;exitX=0.5;exitY=0;exitDx=0;exitDy=0;entryX=0;entryY=0.5;entryDx=0;entryDy=0;" parent="1" source="un5IpDse4PVxTzxpuwJB-1" target="un5IpDse4PVxTzxpuwJB-10" edge="1">
          <mxGeometry width="160" relative="1" as="geometry">
            <mxPoint x="350" y="210" as="sourcePoint" />
            <mxPoint x="340" y="80" as="targetPoint" />
            <Array as="points">
              <mxPoint x="130" y="83" />
            </Array>
          </mxGeometry>
        </mxCell>
        <mxCell id="un5IpDse4PVxTzxpuwJB-34" value="*" style="text;html=1;align=center;verticalAlign=middle;resizable=0;points=[];autosize=1;strokeColor=none;fillColor=none;" parent="1" vertex="1">
          <mxGeometry x="123" y="199" width="30" height="30" as="geometry" />
        </mxCell>
        <mxCell id="un5IpDse4PVxTzxpuwJB-35" value="1" style="text;html=1;align=center;verticalAlign=middle;resizable=0;points=[];autosize=1;strokeColor=none;fillColor=none;" parent="1" vertex="1">
          <mxGeometry x="315" y="50" width="30" height="30" as="geometry" />
        </mxCell>
        <mxCell id="un5IpDse4PVxTzxpuwJB-36" value="" style="endArrow=diamondThin;endFill=1;endSize=24;html=1;rounded=0;exitX=0.5;exitY=0;exitDx=0;exitDy=0;entryX=1;entryY=0.5;entryDx=0;entryDy=0;" parent="1" source="un5IpDse4PVxTzxpuwJB-13" target="un5IpDse4PVxTzxpuwJB-10" edge="1">
          <mxGeometry width="160" relative="1" as="geometry">
            <mxPoint x="690" y="210" as="sourcePoint" />
            <mxPoint x="660" y="110" as="targetPoint" />
            <Array as="points">
              <mxPoint x="720" y="83" />
            </Array>
          </mxGeometry>
        </mxCell>
        <mxCell id="un5IpDse4PVxTzxpuwJB-37" value="1" style="text;html=1;align=center;verticalAlign=middle;resizable=0;points=[];autosize=1;strokeColor=none;fillColor=none;" parent="1" vertex="1">
          <mxGeometry x="505" y="50" width="30" height="30" as="geometry" />
        </mxCell>
        <mxCell id="un5IpDse4PVxTzxpuwJB-38" value="*" style="text;html=1;align=center;verticalAlign=middle;resizable=0;points=[];autosize=1;strokeColor=none;fillColor=none;" parent="1" vertex="1">
          <mxGeometry x="715" y="204" width="30" height="30" as="geometry" />
        </mxCell>
        <mxCell id="un5IpDse4PVxTzxpuwJB-39" value="" style="endArrow=diamondThin;endFill=1;endSize=24;html=1;rounded=0;exitX=0.739;exitY=1.001;exitDx=0;exitDy=0;exitPerimeter=0;entryX=0;entryY=0.735;entryDx=0;entryDy=0;entryPerimeter=0;" parent="1" source="un5IpDse4PVxTzxpuwJB-4" target="P37ZVxwRbgG7Ck2Tnz4E-2" edge="1">
          <mxGeometry width="160" relative="1" as="geometry">
            <mxPoint x="110" y="360" as="sourcePoint" />
            <mxPoint x="270" y="360" as="targetPoint" />
            <Array as="points">
              <mxPoint x="168" y="468" />
            </Array>
          </mxGeometry>
        </mxCell>
        <mxCell id="un5IpDse4PVxTzxpuwJB-40" value="&lt;font style=&quot;font-size: 13px;&quot;&gt;*&lt;/font&gt;" style="text;html=1;align=center;verticalAlign=middle;resizable=0;points=[];autosize=1;strokeColor=none;fillColor=none;strokeWidth=1;" parent="1" vertex="1">
          <mxGeometry x="315" y="440" width="30" height="30" as="geometry" />
        </mxCell>
        <mxCell id="un5IpDse4PVxTzxpuwJB-41" value="1" style="text;html=1;align=center;verticalAlign=middle;resizable=0;points=[];autosize=1;strokeColor=none;fillColor=none;" parent="1" vertex="1">
          <mxGeometry x="160" y="424" width="30" height="30" as="geometry" />
        </mxCell>
        <mxCell id="un5IpDse4PVxTzxpuwJB-42" value="1" style="text;html=1;align=center;verticalAlign=middle;resizable=0;points=[];autosize=1;strokeColor=none;fillColor=none;" parent="1" vertex="1">
          <mxGeometry x="202" y="254" width="30" height="30" as="geometry" />
        </mxCell>
        <mxCell id="un5IpDse4PVxTzxpuwJB-43" value="" style="endArrow=diamondThin;endFill=1;endSize=24;html=1;rounded=0;exitX=1.001;exitY=0.404;exitDx=0;exitDy=0;exitPerimeter=0;entryX=0.984;entryY=1.004;entryDx=0;entryDy=0;entryPerimeter=0;" parent="1" source="un5IpDse4PVxTzxpuwJB-2" target="un5IpDse4PVxTzxpuwJB-45" edge="1">
          <mxGeometry width="160" relative="1" as="geometry">
            <mxPoint x="20" y="420" as="sourcePoint" />
            <mxPoint x="180" y="420" as="targetPoint" />
          </mxGeometry>
        </mxCell>
        <mxCell id="un5IpDse4PVxTzxpuwJB-45" value="1" style="text;html=1;align=center;verticalAlign=middle;resizable=0;points=[];autosize=1;strokeColor=none;fillColor=none;" parent="1" vertex="1">
          <mxGeometry x="315" y="254" width="30" height="30" as="geometry" />
        </mxCell>
        <mxCell id="un5IpDse4PVxTzxpuwJB-47" value="" style="endArrow=diamondThin;endFill=1;endSize=24;html=1;rounded=0;exitX=0.314;exitY=0.998;exitDx=0;exitDy=0;exitPerimeter=0;entryX=-0.001;entryY=0.162;entryDx=0;entryDy=0;entryPerimeter=0;" parent="1" source="un5IpDse4PVxTzxpuwJB-4" target="un5IpDse4PVxTzxpuwJB-18" edge="1">
          <mxGeometry width="160" relative="1" as="geometry">
            <mxPoint x="72" y="550" as="sourcePoint" />
            <mxPoint x="232" y="550" as="targetPoint" />
            <Array as="points">
              <mxPoint x="100" y="608" />
            </Array>
          </mxGeometry>
        </mxCell>
        <mxCell id="un5IpDse4PVxTzxpuwJB-48" value="1" style="text;html=1;align=center;verticalAlign=middle;resizable=0;points=[];autosize=1;strokeColor=none;fillColor=none;" parent="1" vertex="1">
          <mxGeometry x="95" y="425" width="30" height="30" as="geometry" />
        </mxCell>
        <mxCell id="un5IpDse4PVxTzxpuwJB-49" value="*" style="text;html=1;align=center;verticalAlign=middle;resizable=0;points=[];autosize=1;strokeColor=none;fillColor=none;fontSize=14;" parent="1" vertex="1">
          <mxGeometry x="305" y="580" width="30" height="30" as="geometry" />
        </mxCell>
        <mxCell id="un5IpDse4PVxTzxpuwJB-50" value="" style="endArrow=diamondThin;endFill=0;endSize=24;html=1;rounded=0;exitX=-0.002;exitY=0.201;exitDx=0;exitDy=0;exitPerimeter=0;entryX=0.996;entryY=0.422;entryDx=0;entryDy=0;entryPerimeter=0;" parent="1" source="un5IpDse4PVxTzxpuwJB-14" target="un5IpDse4PVxTzxpuwJB-6" edge="1">
          <mxGeometry width="160" relative="1" as="geometry">
            <mxPoint x="190" y="390" as="sourcePoint" />
            <mxPoint x="580" y="320" as="targetPoint" />
          </mxGeometry>
        </mxCell>
        <mxCell id="un5IpDse4PVxTzxpuwJB-51" value="1" style="text;html=1;align=center;verticalAlign=middle;resizable=0;points=[];autosize=1;strokeColor=none;fillColor=none;" parent="1" vertex="1">
          <mxGeometry x="500" y="245" width="30" height="30" as="geometry" />
        </mxCell>
        <mxCell id="un5IpDse4PVxTzxpuwJB-52" value="0...*" style="text;html=1;align=center;verticalAlign=middle;resizable=0;points=[];autosize=1;strokeColor=none;fillColor=none;" parent="1" vertex="1">
          <mxGeometry x="600" y="250" width="50" height="30" as="geometry" />
        </mxCell>
        <mxCell id="un5IpDse4PVxTzxpuwJB-53" value="" style="endArrow=open;endFill=1;endSize=12;html=1;rounded=0;exitX=0.998;exitY=0.082;exitDx=0;exitDy=0;exitPerimeter=0;entryX=0.003;entryY=0.651;entryDx=0;entryDy=0;entryPerimeter=0;dashed=1;" parent="1" source="P37ZVxwRbgG7Ck2Tnz4E-2" target="un5IpDse4PVxTzxpuwJB-16" edge="1">
          <mxGeometry width="160" relative="1" as="geometry">
            <mxPoint x="170" y="310" as="sourcePoint" />
            <mxPoint x="640" y="420" as="targetPoint" />
          </mxGeometry>
        </mxCell>
        <mxCell id="un5IpDse4PVxTzxpuwJB-55" value="1" style="text;html=1;align=center;verticalAlign=middle;resizable=0;points=[];autosize=1;strokeColor=none;fillColor=none;" parent="1" vertex="1">
          <mxGeometry x="615" y="390" width="30" height="30" as="geometry" />
        </mxCell>
        <mxCell id="un5IpDse4PVxTzxpuwJB-56" value="0...*" style="text;html=1;align=center;verticalAlign=middle;resizable=0;points=[];autosize=1;strokeColor=none;fillColor=none;" parent="1" vertex="1">
          <mxGeometry x="495" y="394" width="50" height="30" as="geometry" />
        </mxCell>
        <mxCell id="un5IpDse4PVxTzxpuwJB-57" value="" style="endArrow=open;endFill=1;endSize=12;html=1;rounded=0;exitX=0.999;exitY=0.195;exitDx=0;exitDy=0;exitPerimeter=0;entryX=0.498;entryY=0.997;entryDx=0;entryDy=0;entryPerimeter=0;dashed=1;" parent="1" source="un5IpDse4PVxTzxpuwJB-18" target="un5IpDse4PVxTzxpuwJB-16" edge="1">
          <mxGeometry width="160" relative="1" as="geometry">
            <mxPoint x="515" y="430" as="sourcePoint" />
            <mxPoint x="650" y="430" as="targetPoint" />
            <Array as="points">
              <mxPoint x="720" y="610" />
            </Array>
          </mxGeometry>
        </mxCell>
        <mxCell id="un5IpDse4PVxTzxpuwJB-58" value="0...*" style="text;html=1;align=center;verticalAlign=middle;resizable=0;points=[];autosize=1;strokeColor=none;fillColor=none;" parent="1" vertex="1">
          <mxGeometry x="497" y="582" width="50" height="30" as="geometry" />
        </mxCell>
        <mxCell id="un5IpDse4PVxTzxpuwJB-59" value="1" style="text;html=1;align=center;verticalAlign=middle;resizable=0;points=[];autosize=1;strokeColor=none;fillColor=none;" parent="1" vertex="1">
          <mxGeometry x="689" y="467" width="30" height="30" as="geometry" />
        </mxCell>
      </root>
    </mxGraphModel>
  </diagram>
</mxfile>
